<?xml version="1.0" encoding="UTF-8" standalone="no"?>
<!-- Created with Inkscape (http://www.inkscape.org/) -->
<svg
   xmlns:dc="http://purl.org/dc/elements/1.1/"
   xmlns:cc="http://web.resource.org/cc/"
   xmlns:rdf="http://www.w3.org/1999/02/22-rdf-syntax-ns#"
   xmlns:svg="http://www.w3.org/2000/svg"
   xmlns="http://www.w3.org/2000/svg"
   xmlns:xlink="http://www.w3.org/1999/xlink"
   xmlns:sodipodi="http://sodipodi.sourceforge.net/DTD/sodipodi-0.dtd"
   xmlns:inkscape="http://www.inkscape.org/namespaces/inkscape"
   height="128"
   id="svg20305"
   inkscape:export-filename="/tmp/48x48.png"
   inkscape:export-xdpi="33.75"
   inkscape:export-ydpi="33.75"
   inkscape:version="0.44.1"
   sodipodi:docbase="/home/wally/Desktop"
   sodipodi:docname="kipiIcons.svg"
   sodipodi:version="0.32"
   width="128"
   version="1.0">
  <metadata
     id="metadata1983">
    <rdf:RDF>
      <cc:Work
         rdf:about="">
        <dc:title>palette</dc:title>
        <dc:description />
        <dc:subject>
          <rdf:Bag>
            <rdf:li>education</rdf:li>
          </rdf:Bag>
        </dc:subject>
        <dc:publisher>
          <cc:Agent
             rdf:about="http://www.openclipart.org/">
            <dc:title>Open Clip Art Library</dc:title>
          </cc:Agent>
        </dc:publisher>
        <dc:creator>
          <cc:Agent>
            <dc:title>Juliane Krug</dc:title>
          </cc:Agent>
        </dc:creator>
        <dc:rights>
          <cc:Agent>
            <dc:title>Juliane Krug</dc:title>
          </cc:Agent>
        </dc:rights>
        <dc:date />
        <dc:format>image/svg+xml</dc:format>
        <dc:type
           rdf:resource="http://purl.org/dc/dcmitype/StillImage" />
        <cc:license
           rdf:resource="http://web.resource.org/cc/PublicDomain" />
        <dc:language>en</dc:language>
      </cc:Work>
      <cc:License
         rdf:about="http://web.resource.org/cc/PublicDomain">
        <cc:permits
           rdf:resource="http://web.resource.org/cc/Reproduction" />
        <cc:permits
           rdf:resource="http://web.resource.org/cc/Distribution" />
        <cc:permits
           rdf:resource="http://web.resource.org/cc/DerivativeWorks" />
      </cc:License>
    </rdf:RDF>
  </metadata>
  <defs
     id="defs20307">
    <linearGradient
       id="linearGradient610">
      <stop
         style="stop-color:#a89f9f;stop-opacity:1;"
         offset="0"
         id="stop611" />
      <stop
         style="stop-color:#696969;stop-opacity:1;"
         offset="1"
         id="stop612" />
    </linearGradient>
    <linearGradient
       id="linearGradient616">
      <stop
         style="stop-color:#deff12;stop-opacity:1;"
         offset="0"
         id="stop617" />
      <stop
         style="stop-color:#efaa00;stop-opacity:1;"
         offset="1"
         id="stop618" />
    </linearGradient>
    <linearGradient
       id="linearGradient3532">
      <stop
         id="stop3533"
         offset="0.0000000"
         style="stop-color:#000000;stop-opacity:0.48677248;" />
      <stop
         id="stop3534"
         offset="0.50000000"
         style="stop-color:#000000;stop-opacity:0.079096042;" />
      <stop
         id="stop3535"
         offset="1.0000000"
         style="stop-color:#000000;stop-opacity:0.0000000;" />
    </linearGradient>
    <linearGradient
       id="linearGradient21044">
      <stop
         id="stop21045"
         offset="0.0000000"
         style="stop-color:#ffffff;stop-opacity:0.0000000;" />
      <stop
         id="stop21046"
         offset="1.0000000"
         style="stop-color:#ffffff;stop-opacity:1.0000000;" />
    </linearGradient>
    <linearGradient
       id="linearGradient21036">
      <stop
         id="stop21037"
         offset="0.0000000"
         style="stop-color:#ffffff;stop-opacity:0.0000000;" />
      <stop
         id="stop21038"
         offset="1.0000000"
         style="stop-color:#ffffff;stop-opacity:1.0000000;" />
    </linearGradient>
    <linearGradient
       id="linearGradient21012">
      <stop
         id="stop21013"
         offset="0.0000000"
         style="stop-color:#000000;stop-opacity:1.0000000;" />
      <stop
         id="stop21014"
         offset="1.0000000"
         style="stop-color:#000000;stop-opacity:0.0000000;" />
    </linearGradient>
    <linearGradient
       id="linearGradient20962">
      <stop
         id="stop20963"
         offset="0.0000000"
         style="stop-color:#ffffff;stop-opacity:0.0000000;" />
      <stop
         id="stop20964"
         offset="1.0000000"
         style="stop-color:#ffffff;stop-opacity:1.0000000;" />
    </linearGradient>
    <linearGradient
       id="linearGradient20965"
       inkscape:collect="always"
       x1="55.498672"
       x2="31.814259"
       xlink:href="#linearGradient21044"
       y1="51.981258"
       y2="24.857855"
       gradientTransform="scale(0.989192,1.010926)"
       gradientUnits="userSpaceOnUse" />
    <radialGradient
       id="radialGradient21017"
       inkscape:collect="always"
       xlink:href="#linearGradient21012"
       gradientTransform="scale(1.115263,0.896649)"
       cx="124.12419"
       cy="198.78021"
       fx="124.12419"
       fy="198.78021"
       r="67.5401"
       gradientUnits="userSpaceOnUse" />
    <linearGradient
       id="linearGradient21035"
       inkscape:collect="always"
       x1="57.450615"
       x2="51.829426"
       xlink:href="#linearGradient21036"
       y1="22.078526"
       y2="17.653362"
       gradientTransform="scale(0.948271,1.054551)"
       gradientUnits="userSpaceOnUse" />
    <radialGradient
       cx="0.5"
       cy="0.5"
       fx="0.18039216"
       fy="0.47916666"
       id="radialGradient1502"
       r="0.5"
       xlink:href="#linearGradient1918" />
    <linearGradient
       id="linearGradient1918">
      <stop
         id="stop1919"
         offset="0.0000000"
         style="stop-color:#000000;stop-opacity:0.31638417;" />
      <stop
         id="stop1920"
         offset="0.50000000"
         style="stop-color:#000000;stop-opacity:0.079096042;" />
      <stop
         id="stop1921"
         offset="1.0000000"
         style="stop-color:#000000;stop-opacity:0.0000000;" />
    </linearGradient>
    <radialGradient
       cx="0.5"
       cy="0.5"
       fx="0.18039216"
       fy="0.47916666"
       id="radialGradient2541"
       r="0.5"
       xlink:href="#linearGradient3532" />
    <linearGradient
       id="linearGradient2121"
       x1="0.41568628"
       x2="0.59607846"
       xlink:href="#linearGradient1513"
       y1="0.27687296"
       y2="0.44299674" />
    <linearGradient
       id="linearGradient1513">
      <stop
         id="stop1514"
         offset="0.0000000"
         style="stop-color:#ffffff;stop-opacity:1.0000000;" />
      <stop
         id="stop1515"
         offset="1.0000000"
         style="stop-color:#ffffff;stop-opacity:0.0000000;" />
    </linearGradient>
    <linearGradient
       id="linearGradient2316"
       x1="0.47450981"
       x2="0.80392158"
       xlink:href="#linearGradient2317"
       y1="0.21771218"
       y2="0.5202952" />
    <linearGradient
       id="linearGradient2317">
      <stop
         id="stop2318"
         offset="0.0000000"
         style="stop-color:#d6d6d6;stop-opacity:1.0000000;" />
      <stop
         id="stop2322"
         offset="0.25769231"
         style="stop-color:#eaeaea;stop-opacity:1.0000000;" />
      <stop
         id="stop2320"
         offset="0.70594490"
         style="stop-color:#919191;stop-opacity:1.0000000;" />
      <stop
         id="stop2321"
         offset="0.73347497"
         style="stop-color:#d2d2d2;stop-opacity:1.0000000;" />
      <stop
         id="stop2319"
         offset="1.0000000"
         style="stop-color:#a6a6a6;stop-opacity:1.0000000;" />
    </linearGradient>
    <linearGradient
       id="linearGradient2315"
       x1="0.27843139"
       x2="0.4509804"
       xlink:href="#linearGradient1513"
       y1="-0.063694268"
       y2="0.61146498" />
    <linearGradient
       id="linearGradient1512"
       x1="0.99512196"
       x2="0.32682925"
       xlink:href="#linearGradient1918"
       y1="0.64396286"
       y2="0.3003096" />
    <linearGradient
       id="linearGradient2224"
       x1="-0.14213198"
       x2="0.49753696"
       xlink:href="#linearGradient1513"
       y1="-0.28792569"
       y2="0.35603714" />
    <linearGradient
       id="linearGradient2138"
       x1="1.3783784"
       x2="0.58378381"
       xlink:href="#linearGradient2122"
       y1="0.25386998"
       y2="0.13003096" />
    <linearGradient
       id="linearGradient2122">
      <stop
         id="stop2123"
         offset="0.0000000"
         style="stop-color:#000000;stop-opacity:0.40784314;" />
      <stop
         id="stop2124"
         offset="1.0000000"
         style="stop-color:#000000;stop-opacity:0.0000000;" />
    </linearGradient>
    <linearGradient
       id="linearGradient2223"
       x1="-0.18232045"
       x2="0.68508285"
       xlink:href="#linearGradient1513"
       y1="-0.43962848"
       y2="0.42414862" />
    <linearGradient
       id="linearGradient1516"
       x1="0.45882353"
       x2="0.6901961"
       xlink:href="#linearGradient2122"
       y1="1.2772278"
       y2="-0.2970297" />
    <linearGradient
       id="linearGradient2314"
       x1="-0.4509804"
       x2="0.47058824"
       xlink:href="#linearGradient1513"
       y1="-0.15053764"
       y2="0.36559141" />
    <linearGradient
       id="linearGradient2313"
       x1="-0.0078431377"
       x2="0.59607846"
       xlink:href="#linearGradient1513"
       y1="-1.244898"
       y2="0.3605442" />
    <linearGradient
       id="linearGradient2312"
       x1="0.45882353"
       x2="0.65490198"
       xlink:href="#linearGradient1513"
       y1="-0.58685446"
       y2="0.45070422" />
    <linearGradient
       id="linearGradient2222"
       x1="-0.10588235"
       x2="0.58431375"
       xlink:href="#linearGradient1513"
       y1="-0.10497238"
       y2="0.55248618" />
    <linearGradient
       inkscape:collect="always"
       xlink:href="#linearGradient21036"
       id="linearGradient2072"
       x1="31.343283"
       y1="60.651524"
       x2="25.262003"
       y2="55.864162"
       gradientTransform="scale(0.902087,1.108541)"
       gradientUnits="userSpaceOnUse" />
    <linearGradient
       inkscape:collect="always"
       xlink:href="#linearGradient21036"
       id="linearGradient2074"
       x1="50.463959"
       y1="59.3046"
       x2="44.333637"
       y2="54.478634"
       gradientTransform="scale(0.926563,1.079257)"
       gradientUnits="userSpaceOnUse" />
    <linearGradient
       inkscape:collect="always"
       xlink:href="#linearGradient21036"
       id="linearGradient2076"
       x1="57.88905"
       y1="52.688183"
       x2="51.929722"
       y2="47.99683"
       gradientTransform="scale(1.005313,0.994715)"
       gradientUnits="userSpaceOnUse" />
    <linearGradient
       inkscape:collect="always"
       xlink:href="#linearGradient21036"
       id="linearGradient2078"
       x1="64.260979"
       y1="37.175373"
       x2="58.719795"
       y2="32.81319"
       gradientTransform="scale(0.975987,1.024604)"
       gradientUnits="userSpaceOnUse" />
    <linearGradient
       inkscape:collect="always"
       xlink:href="#linearGradient616"
       id="linearGradient3098"
       gradientUnits="userSpaceOnUse"
       gradientTransform="scale(1.474979,0.677976)"
       x1="292.90677"
       y1="378.85536"
       x2="351.51759"
       y2="438.09572" />
    <linearGradient
       inkscape:collect="always"
       xlink:href="#linearGradient616"
       id="linearGradient3100"
       gradientUnits="userSpaceOnUse"
       gradientTransform="scale(1.474979,0.677976)"
       x1="292.90677"
       y1="378.85536"
       x2="351.51759"
       y2="438.09572" />
    <linearGradient
       inkscape:collect="always"
       xlink:href="#linearGradient610"
       id="linearGradient3102"
       gradientUnits="userSpaceOnUse"
       gradientTransform="matrix(-0.156977,0,0,0.151837,98.48398,-6.931272)"
       x1="183.59398"
       y1="246.02464"
       x2="368.13855"
       y2="435.15115" />
    <linearGradient
       inkscape:collect="always"
       xlink:href="#linearGradient616"
       id="linearGradient3136"
       gradientUnits="userSpaceOnUse"
       gradientTransform="scale(1.474979,0.677976)"
       x1="292.90677"
       y1="378.85536"
       x2="351.51759"
       y2="438.09572" />
    <linearGradient
       inkscape:collect="always"
       xlink:href="#linearGradient616"
       id="linearGradient3138"
       gradientUnits="userSpaceOnUse"
       gradientTransform="scale(1.474979,0.677976)"
       x1="292.90677"
       y1="378.85536"
       x2="351.51759"
       y2="438.09572" />
    <linearGradient
       inkscape:collect="always"
       xlink:href="#linearGradient610"
       id="linearGradient3140"
       gradientUnits="userSpaceOnUse"
       gradientTransform="matrix(-0.156977,0,0,0.151837,98.48398,-6.931272)"
       x1="183.59398"
       y1="246.02464"
       x2="368.13855"
       y2="435.15115" />
  </defs>
  <sodipodi:namedview
     bordercolor="#666666"
     borderopacity="1.0"
     id="base"
     inkscape:cx="69.507751"
     inkscape:cy="72.501038"
     inkscape:pageopacity="0.0"
     inkscape:pageshadow="2"
     inkscape:window-height="937"
     inkscape:window-width="1272"
     inkscape:window-x="0"
     inkscape:window-y="0"
     inkscape:zoom="4"
     pagecolor="#ffffff"
     width="128px"
     height="128px"
     inkscape:current-layer="layer2" />
  <g
     id="g21200"
     transform="matrix(1.720376,0,0,1.612464,-7.805174,-11.32108)">
    <path
       d="M 80.038306,139.98171 A 75.326637,60.566689 0 1 1 79.600141,140.41828 L 138.43814,178.23611 z"
       id="path21016"
       sodipodi:cx="138.43814"
       sodipodi:cy="178.23611"
       sodipodi:end="10.099141"
       sodipodi:rx="75.326637"
       sodipodi:ry="60.566689"
       sodipodi:start="3.8252181"
       sodipodi:type="arc"
       style="fill:url(#radialGradient21017);fill-opacity:1;fill-rule:evenodd;stroke:none;stroke-width:1pt;stroke-linecap:butt;stroke-linejoin:miter;stroke-opacity:1"
       transform="matrix(0.476914,0,0,0.267047,-23.63522,21.65749)" />
    <path
       d="M 56.964452,9.6436025 C 52.703192,6.7734207 45.987673,6.4848753 43.087575,10.980078 C 39.455492,16.782437 39.651089,24.597615 34.788703,29.670482 C 28.819708,36.547896 19.661454,39.992573 14.662947,47.835307 C 11.22661,52.53752 8.856009,59.176396 11.790275,65.010658 C 15.024885,71.357938 21.806185,74.634411 28.0092,77.156007 C 37.565721,80.699173 48.649966,79.273378 56.243983,72.95514 C 66.568849,65.055233 73.162354,52.530821 74.222673,39.263848 C 74.440095,32.31612 72.524065,25.071249 68.406436,19.230786 C 65.15022,15.430234 61.352312,12.02286 56.964452,9.6436025 z "
       id="path20328"
       style="fill:#e6c5a2;fill-opacity:1;fill-rule:evenodd;stroke:none;stroke-width:1.08800097pt;stroke-linecap:butt;stroke-linejoin:miter;stroke-opacity:1" />
    <path
       d="M 61.390968,12.647344 C 59.908904,11.499452 58.344782,10.463499 56.699338,9.5712772 C 52.438078,6.7010954 45.723193,6.412567 42.823095,10.907764 C 39.191023,16.710123 39.388771,24.525891 34.52639,29.598759 C 28.557392,36.476174 19.397455,39.921037 14.398951,47.763772 C 10.962617,52.465984 8.589355,59.10399 11.523621,64.938254 C 14.758231,71.285532 21.541332,74.561547 27.744339,77.083142 C 37.30086,80.626308 48.385953,79.201451 55.979959,72.883212 C 66.304824,64.983311 72.898196,52.45949 73.958528,39.192517 C 74.17595,32.244788 72.258137,24.998486 68.140507,19.158018 C 66.105369,16.782675 63.861084,14.560501 61.390968,12.647344 z M 60.03341,13.531356 C 61.973797,15.025379 63.809914,16.658446 65.458714,18.482135 C 69.690122,23.472711 71.752137,30.029989 71.862694,36.377711 C 71.662426,48.405007 66.132505,59.797732 57.585212,67.662677 C 52.041002,73.407166 43.78389,76.344263 35.639863,75.417421 C 30.808905,74.790676 26.126266,72.910002 21.865631,70.415834 C 18.092196,68.213477 14.353363,64.900531 13.446526,60.43771 C 12.721209,55.81984 14.734521,51.396059 17.344008,47.882888 C 22.616578,40.840362 30.83202,36.958831 36.729091,30.548811 C 40.525823,26.511744 41.641072,20.815239 43.565314,15.723052 C 44.411499,13.276481 45.436005,10.41926 48.090865,9.526032 C 51.489628,8.360668 55.161953,10.092248 58.057796,12.081048 C 58.724784,12.549882 59.386616,13.033346 60.03341,13.531356 z "
       id="path21001"
       style="fill:#ae7172;fill-opacity:0.29375;fill-rule:evenodd;stroke:none;stroke-width:1.08800097pt;stroke-linecap:butt;stroke-linejoin:miter;stroke-opacity:1" />
    <path
       d="M 59.792029,13.407478 C 57.022986,11.126228 53.757988,9.1117056 50.1577,9.0660911 C 47.618511,8.9293384 45.100473,10.161181 43.93158,12.415163 C 41.607985,15.974614 40.809885,20.31841 38.901622,24.107275 C 36.926682,28.526629 33.671953,32.197742 29.909511,35.125255 C 24.775734,39.632281 19.193393,43.783926 15.163162,49.395895 C 12.902943,52.847696 11.759045,57.251243 12.635823,61.485157 C 13.435637,64.81753 15.877286,67.529146 18.559111,69.56834 C 20.762463,68.105464 22.293328,65.870397 24.194306,64.074004 C 30.780676,57.107752 38.139514,50.854043 46.348819,45.868036 C 54.235255,40.898272 62.790113,37.031037 71.552135,33.757244 C 70.745571,25.811718 66.404038,18.127162 59.792029,13.407478 z "
       id="path20961"
       style="fill:url(#linearGradient20965);fill-opacity:1;fill-rule:evenodd;stroke:none;stroke-width:1.08800097pt;stroke-linecap:butt;stroke-linejoin:miter;stroke-opacity:1" />
    <path
       d="M 52.219162,17.613379 C 62.648396,16.766988 63.187839,24.892353 57.074149,27.262252 C 44.666955,28.277926 45.026584,20.321837 52.219162,17.613379 z "
       id="path21018"
       sodipodi:nodetypes="ccc"
       style="fill:#ffb300;fill-opacity:0.75;fill-rule:evenodd;stroke:none;stroke-width:3.75;stroke-linecap:butt;stroke-linejoin:miter;stroke-miterlimit:4;stroke-opacity:0.89375" />
    <path
       d="M 52.276081,17.708296 C 45.083503,20.416759 44.731404,28.381166 57.138604,27.365493 C 63.252289,24.9956 62.705309,16.861899 52.276081,17.708296 z M 54.466071,18.20526 C 56.899161,18.000501 60.804697,20.004472 59.538937,23.107733 C 57.69706,27.441449 52.378385,26.184117 49.071512,24.907547 C 46.173802,22.482652 49.540608,18.685031 52.164722,18.272415 C 52.930762,18.273358 53.702372,18.132992 54.466071,18.20526 z "
       id="path21019"
       style="fill:black;fill-opacity:0.21874994;fill-rule:evenodd;stroke:none;stroke-width:3.75;stroke-linecap:butt;stroke-linejoin:miter;stroke-miterlimit:4;stroke-opacity:0.89375" />
    <path
       d="M 60.226117,32.125462 C 70.807408,31.314804 71.354717,39.097061 65.151892,41.36689 C 52.563811,42.339676 52.928681,34.719548 60.226117,32.125462 z "
       id="path21026"
       sodipodi:nodetypes="ccc"
       style="fill:#ff8000;fill-opacity:0.75;fill-rule:evenodd;stroke:none;stroke-width:3.75;stroke-linecap:butt;stroke-linejoin:miter;stroke-miterlimit:4;stroke-opacity:0.89375" />
    <path
       d="M 60.283867,32.216368 C 52.986424,34.810453 52.629199,42.438559 65.217281,41.465778 C 71.4201,39.195948 70.865151,31.405715 60.283867,32.216368 z M 62.505785,32.692342 C 64.974349,32.496231 68.93682,34.415581 67.652608,37.387799 C 65.783884,41.538518 60.387665,40.334284 57.032575,39.111612 C 54.09262,36.789117 57.50851,33.151858 60.170888,32.756662 C 60.948092,32.757571 61.730957,32.623132 62.505785,32.692342 z "
       id="path21027"
       style="fill:black;fill-opacity:0.21874994;fill-rule:evenodd;stroke:none;stroke-width:3.75;stroke-linecap:butt;stroke-linejoin:miter;stroke-miterlimit:4;stroke-opacity:0.89375" />
    <path
       d="M 55.349068,46.446177 C 67.070754,45.599786 67.677051,53.725145 60.805723,56.09505 C 46.860948,57.110718 47.265144,49.154635 55.349068,46.446177 z "
       id="path21028"
       sodipodi:nodetypes="ccc"
       style="fill:#ff3a00;fill-opacity:0.75;fill-rule:evenodd;stroke:none;stroke-width:3.75;stroke-linecap:butt;stroke-linejoin:miter;stroke-miterlimit:4;stroke-opacity:0.89375" />
    <path
       d="M 55.413039,46.541094 C 47.329109,49.249552 46.933384,57.213964 60.878159,56.198291 C 67.749487,53.828392 67.13473,45.694702 55.413039,46.541094 z M 57.874424,47.038058 C 60.609048,46.833293 64.998573,48.83727 63.575954,51.940525 C 61.505821,56.274241 55.528023,55.01691 51.811339,53.740339 C 48.554529,51.315445 52.338569,47.517829 55.287882,47.105214 C 56.148852,47.106163 57.016089,46.96579 57.874424,47.038058 z "
       id="path21029"
       style="fill:black;fill-opacity:0.21874994;fill-rule:evenodd;stroke:none;stroke-width:3.75;stroke-linecap:butt;stroke-linejoin:miter;stroke-miterlimit:4;stroke-opacity:0.89375" />
    <path
       d="M 43.927053,57.270954 C 55.040533,56.326271 55.615365,65.395184 49.100569,68.040287 C 35.879362,69.1739 36.26259,60.293923 43.927053,57.270954 z "
       id="path21030"
       sodipodi:nodetypes="ccc"
       style="fill:#23b300;fill-opacity:0.75;fill-rule:evenodd;stroke:none;stroke-width:3.75;stroke-linecap:butt;stroke-linejoin:miter;stroke-miterlimit:4;stroke-opacity:0.89375" />
    <path
       d="M 43.987697,57.376888 C 36.323233,60.399863 35.948037,69.28913 49.169251,68.155517 C 55.684047,65.510413 55.101177,56.43221 43.987697,57.376888 z M 46.321372,57.931564 C 48.914094,57.703026 53.075864,59.939706 51.727058,63.403325 C 49.764344,68.240285 44.096726,66.83695 40.572893,65.412144 C 37.485068,62.705659 41.072763,58.467046 43.86904,58.00652 C 44.685338,58.007577 45.507575,57.850909 46.321372,57.931564 z "
       id="path21031"
       style="fill:black;fill-opacity:0.21874994;fill-rule:evenodd;stroke:none;stroke-width:3.75;stroke-linecap:butt;stroke-linejoin:miter;stroke-miterlimit:4;stroke-opacity:0.89375" />
    <path
       d="M 25.812991,60.121426 C 36.546335,59.158872 37.101503,68.399334 30.809549,71.094478 C 18.040567,72.249535 18.410684,63.201577 25.812991,60.121426 z "
       id="path21032"
       sodipodi:nodetypes="ccc"
       style="fill:#0002ff;fill-opacity:0.75;fill-rule:evenodd;stroke:none;stroke-width:3.75;stroke-linecap:butt;stroke-linejoin:miter;stroke-miterlimit:4;stroke-opacity:0.89375" />
    <path
       d="M 25.871566,60.229365 C 18.469258,63.309523 18.106895,72.366941 30.875878,71.211883 C 37.167838,68.516751 36.604903,59.266812 25.871566,60.229365 z M 28.125416,60.794529 C 30.629453,60.561673 34.648869,62.840661 33.346201,66.3698 C 31.45062,71.298255 25.976857,69.86838 22.573555,68.416613 C 19.591354,65.658933 23.056329,61.340148 25.756962,60.870901 C 26.545337,60.87198 27.339452,60.712346 28.125416,60.794529 z "
       id="path21033"
       style="fill:black;fill-opacity:0.21874994;fill-rule:evenodd;stroke:none;stroke-width:3.75;stroke-linecap:butt;stroke-linejoin:miter;stroke-miterlimit:4;stroke-opacity:0.89375" />
    <path
       d="M 23.897359,62.344055 C 21.725291,63.62579 20.442819,67.828504 23.38916,69.024187 C 27.718971,70.147448 28.88379,66.207597 28.099692,61.123769 C 26.51485,60.7902 25.254904,61.410889 23.897359,62.344055 z "
       id="path21034"
       sodipodi:nodetypes="cccc"
       style="fill:url(#linearGradient2072);fill-opacity:1;fill-rule:evenodd;stroke:none;stroke-width:3.75;stroke-linecap:butt;stroke-linejoin:miter;stroke-miterlimit:4;stroke-opacity:0.89375" />
    <path
       d="M 42.226034,59.205072 C 39.977037,60.463018 38.649146,64.587701 41.699836,65.761191 C 46.182993,66.863593 47.389066,62.996886 46.577196,58.007441 C 44.936227,57.68007 43.63166,58.289236 42.226034,59.205072 z "
       id="path21040"
       sodipodi:nodetypes="cccc"
       style="fill:url(#linearGradient2074);fill-opacity:1;fill-rule:evenodd;stroke:none;stroke-width:3.75;stroke-linecap:butt;stroke-linejoin:miter;stroke-miterlimit:4;stroke-opacity:0.89375" />
    <path
       d="M 53.416597,48.109256 C 51.04452,49.236324 49.643951,52.931874 52.861596,53.983259 C 57.590108,54.970971 58.862187,51.506562 58.005889,47.036229 C 56.275109,46.742916 54.899146,47.2887 53.416597,48.109256 z "
       id="path21041"
       sodipodi:nodetypes="cccc"
       style="fill:url(#linearGradient2076);fill-opacity:1;fill-rule:evenodd;stroke:none;stroke-width:3.75;stroke-linecap:butt;stroke-linejoin:miter;stroke-miterlimit:4;stroke-opacity:0.89375" />
    <path
       d="M 58.4029,33.971158 C 56.261599,35.050628 54.997299,38.59013 57.9019,39.597128 C 62.170375,40.543129 63.318688,37.225007 62.545699,32.943444 C 60.983312,32.662519 59.741211,33.18525 58.4029,33.971158 z "
       id="path21042"
       sodipodi:nodetypes="cccc"
       style="fill:url(#linearGradient2078);fill-opacity:1;fill-rule:evenodd;stroke:none;stroke-width:3.75;stroke-linecap:butt;stroke-linejoin:miter;stroke-miterlimit:4;stroke-opacity:0.89375" />
    <path
       d="M 50.225748,18.982481 C 48.115222,20.109543 46.86909,23.805093 49.731949,24.856489 C 53.939083,25.844196 55.070898,22.379786 54.309016,17.909454 C 52.769077,17.616141 51.544828,18.16193 50.225748,18.982481 z "
       id="path21043"
       sodipodi:nodetypes="cccc"
       style="fill:url(#linearGradient21035);fill-opacity:1;fill-rule:evenodd;stroke:none;stroke-width:3.75;stroke-linecap:butt;stroke-linejoin:miter;stroke-miterlimit:4;stroke-opacity:0.89375" />
  </g>
  <g
     inkscape:groupmode="layer"
     id="layer1"
     inkscape:label="plug" />
  <g
     inkscape:groupmode="layer"
     id="layer2"
     inkscape:label="K">
    <g
       id="g3122">
      <g
         transform="matrix(-1.119977,0,0,1.119977,91.5323,-2.95296)"
         id="g3089">
        <g
           id="g654"
           transform="matrix(-0.17971,0,0,0.11319,112.938,24.0727)">
          <path
             style="font-size:12px;fill:url(#linearGradient3136);fill-rule:evenodd;stroke:#da6d00;stroke-width:8.94388962"
             d="M 445.8627,250.6016 C 445.5426,249.6783 553.5527,247.8569 554.3144,250.4038 C 576.618,262.7523 575.1416,299.3077 556.3294,313.6764 C 547.1875,313.427 447.4558,315.5964 442.5106,314.1833 C 397.3899,299.9316 422.9359,254.3613 445.8627,250.6016 z "
             id="path655"
             sodipodi:nodetypes="ccccc"
             sodipodi:stroke-cmyk="(0 0.5 1 0.1466)" />
          <path
             style="font-size:12px;fill-opacity:0.45;fill-rule:evenodd"
             d="M 457.1213,245.6608 L 457.1213,318.0827 L 488.5497,318.0827 C 483.0839,298.0414 481.7175,265.7021 488.5497,245.6608 L 457.1213,245.6608 z "
             id="path656"
             sodipodi:nodetypes="ccccc" />
        </g>
        <g
           id="g651"
           transform="matrix(-0.17971,0,0,0.11319,112.938,6.172162)">
          <path
             style="font-size:12px;fill:url(#linearGradient3138);fill-rule:evenodd;stroke:#da6d00;stroke-width:8.94388962"
             d="M 445.8627,250.6016 C 445.5426,249.6783 553.5527,247.8569 554.3144,250.4038 C 576.618,262.7523 575.1416,299.3077 556.3294,313.6764 C 547.1875,313.427 447.4558,315.5964 442.5106,314.1833 C 397.3899,299.9316 422.9359,254.3613 445.8627,250.6016 z "
             id="path607"
             sodipodi:nodetypes="ccccc"
             sodipodi:stroke-cmyk="(0 0.5 1 0.1466)" />
          <path
             style="font-size:12px;fill-opacity:0.45;fill-rule:evenodd"
             d="M 457.1213,245.6608 L 457.1213,318.0827 L 488.5497,318.0827 C 483.0839,298.0414 481.7175,265.7021 488.5497,245.6608 L 457.1213,245.6608 z "
             id="path648"
             sodipodi:nodetypes="ccccc" />
        </g>
        <path
           style="font-size:12px;fill:url(#linearGradient3140);fill-rule:evenodd;stroke:#545454;stroke-width:1.47967303;stroke-opacity:1"
           d="M 30.323257,25.354528 L 61.406971,25.352537 C 71.639815,25.351873 74.306308,50.375323 74.068819,59.906907 C 73.950976,64.635913 68.267666,67.65884 63.190828,67.630976 L 30.657763,67.452425 L 30.323257,25.354528 z "
           id="path606"
           sodipodi:nodetypes="cssscc" />
      </g>
      <g
         transform="matrix(0.275912,0,0,0.275912,10.43846,22.91225)"
         id="g3104"
         style="fill:white;display:inline">
        <path
           clip-rule="evenodd"
           d="M 72.216369,26.435215 L 96.316461,24.681094 C 96.316461,39.171655 96.316461,53.58595 96.316461,68.000245 C 105.92599,53.509684 116.60325,39.095389 128.65223,25.138691 L 154.50645,31.697576 C 142.91506,44.586549 131.09275,58.924578 121.63681,73.262607 C 130.71248,88.515829 140.70334,102.47359 154.04991,118.33588 L 129.11195,125.73369 C 115.15525,110.09914 106.76598,95.074714 96.316461,78.906299 L 96.316461,121.84412 L 72.216369,124.89582 L 72.216369,26.435215 L 72.216369,26.435215 z "
           id="path1084"
           style="fill:white;fill-rule:evenodd" />
        <path
           clip-rule="evenodd"
           d="M 96.546321,145.56394 C 110.65555,142.58849 107.07104,138.31866 118.58617,145.03008 L 126.0613,150.29137 C 127.43515,150.97778 128.73062,152.19908 130.02714,150.90151 C 132.84899,148.23219 135.59457,145.48766 138.41641,142.81835 C 139.63667,141.52077 138.41641,140.07065 137.80629,139.08025 L 137.72896,139.08025 L 132.31513,131.37844 L 128.72956,132.67603 C 127.81543,133.28616 126.59411,132.98003 125.52744,131.53204 L 117.59577,121.15878 C 110.27422,131.30218 98.452971,137.86106 85.030135,137.86106 C 62.914022,137.86106 44.91522,119.86438 44.91522,97.746146 C 44.91522,82.035328 53.990888,68.383694 67.183865,61.824808 L 67.183865,52.596609 C 66.726269,52.825407 66.269731,52.97794 65.886282,53.130472 C 60.701246,55.265923 60.395122,56.257382 51.929584,51.376351 L 44.456565,46.037724 C 43.082715,45.427595 41.786191,44.131071 40.490727,45.427595 C 37.668881,48.173175 34.923301,50.918755 32.101455,53.664335 C 30.881197,54.884592 32.177721,56.409915 32.711584,57.401374 L 38.429423,65.485582 L 42.625119,71.434338 C 43.235247,72.273266 43.462987,72.349532 43.158981,72.959661 C 42.77871,73.569789 42.472586,74.103652 42.091256,74.713781 C 36.52383,84.323311 40.413401,85.085972 28.515888,88.212883 L 19.440221,89.738205 C 18.06849,90.195802 16.238104,90.195802 16.160778,92.102454 C 16.160778,95.992026 16.084512,99.881595 16.084512,103.77117 C 16.008246,105.5253 17.992224,105.67889 19.136216,105.98289 L 28.823071,107.73701 L 36.068352,109.03459 C 37.059811,109.18818 37.286491,109.03459 37.516348,109.79619 C 40.491786,122.68516 44.380298,119.63557 37.89662,130.8467 L 32.635317,138.39598 C 31.948922,139.69356 30.727605,140.99008 32.025189,142.28555 C 34.770768,145.10739 37.439023,147.8551 40.184603,150.67694 C 41.404861,151.89508 42.930183,150.60067 43.922702,150.06682 L 52.00585,144.34686 L 58.030873,140.22742 C 58.870859,139.54104 58.947125,139.31329 59.557254,139.69356 C 71.606241,147.24496 72.063837,141.82901 75.572078,154.56652 L 77.249933,163.64006 C 77.707529,165.01391 77.783795,166.76804 79.614182,166.84429 C 83.503754,166.84429 87.469592,166.84429 91.359161,166.84429 C 93.113281,166.84429 93.266871,164.86033 93.494611,163.71632 L 95.172471,153.95532 L 96.316461,146.78419 C 96.392731,146.09779 96.392731,145.79062 96.546321,145.56394 z M 111.11315,139.46265 C 111.03688,139.5368 110.95956,139.5368 110.88329,139.5368 C 110.95956,139.5368 110.95956,139.46265 111.03688,139.46265 L 111.11315,139.46265 z M 97.306861,145.25781 C 97.079121,145.33408 96.773001,145.41141 96.545261,145.56394 C 96.696731,145.41034 96.926591,145.33408 97.306861,145.25781 z "
           id="path1086"
           style="fill:white;fill-rule:evenodd" />
        <path
           clip-rule="evenodd"
           d="M 85.3352,134.96294 C 97.994321,134.96294 109.12917,128.55553 115.84059,118.79242 L 115.38299,118.03082 C 107.52758,126.72408 98.758041,132.36778 85.258934,132.6739 C 68.480389,132.97791 51.473047,117.95455 51.395721,98.276835 C 51.244248,85.616657 57.11568,77.074853 67.10654,70.973564 L 67.10654,65.634936 C 55.895422,71.965023 48.26987,84.091335 48.26987,97.89656 C 48.26987,118.25854 64.894823,134.96294 85.3352,134.96294 z "
           id="path1088"
           style="fill:white;fill-rule:evenodd" />
      </g>
    </g>
  </g>
</svg>
